<svg xmlns="http://www.w3.org/2000/svg" id="Vrstva_2" data-name="Vrstva 2" viewBox="0 0 1451.57 274.41"><defs><style>      .cls-1 {        fill: #d2b32c;      }      .cls-1, .cls-2 {        stroke-width: 0px;      }      .cls-2 {        fill: #ffffff;      }    </style></defs><g id="Vrstva_1-2" data-name="Vrstva 1"><g><g><path class="cls-2" d="M65.8,155.58h-31.52v-22.35h31.52c3.85,0,6.88-.98,9.1-2.95,2.22-1.97,3.33-4.62,3.33-7.97s-1.11-6.01-3.33-7.97c-2.22-1.97-5.25-2.95-9.1-2.95H23.1v68.18H0v-91.29h65.8c10.97,0,19.57,2.99,25.8,8.98,6.23,5.99,9.35,14.08,9.35,24.3s-3.14,18.44-9.42,24.67c-6.28,6.24-14.86,9.35-25.74,9.35Z"></path><path class="cls-2" d="M194.25,179.57h-84.51v-91.29h84.25v23.1h-61.15v44.95h61.4v23.23ZM190.48,141.9h-46.46v-17.45h46.46v17.45Z"></path><path class="cls-2" d="M282.39,176.8l-55.25-51.98v54.75h-22.1v-78.85c0-4.19,1.05-7.51,3.14-9.98,2.09-2.47,4.9-3.7,8.41-3.7,3.01,0,5.98,1.34,8.92,4.02l55.25,50.85v-54.75h22.1v79.99c0,4.19-1.05,7.51-3.14,9.98-2.09,2.47-4.9,3.7-8.41,3.7-3.18,0-6.15-1.34-8.92-4.02Z"></path><path class="cls-2" d="M348.69,79.74l-33.27,2.89v-10.17l33.27-6.65v13.94ZM339.9,179.57h-23.23v-91.29h23.23v91.29Z"></path><path class="cls-2" d="M445.5,179.57h-81.24c-3.6,0-6.68-1.02-9.23-3.08-2.55-2.05-3.83-4.92-3.83-8.6,0-3.43,1.59-6.66,4.77-9.67l50.23-47.84h-53.74v-22.1h78.85c3.6,0,6.67,1.03,9.23,3.08,2.55,2.05,3.83,4.92,3.83,8.6,0,3.43-1.59,6.66-4.77,9.67l-50.23,47.84h56.13v22.1Z"></path><path class="cls-2" d="M540.3,179.57h-84.51v-91.29h84.25v23.1h-61.15v44.95h61.4v23.23ZM536.54,141.9h-46.46v-17.45h46.46v17.45Z"></path></g><g><path class="cls-2" d="M910.51,179.57h-69.44v-23.23h69.44c2.76,0,4.9-.61,6.4-1.82,1.51-1.21,2.26-2.95,2.26-5.21s-.78-4.06-2.32-5.4c-1.55-1.34-3.66-2.01-6.34-2.01h-40.68c-9.29,0-16.66-2.45-22.1-7.35-5.44-4.9-8.16-11.32-8.16-19.27s2.68-14.44,8.04-19.46c5.36-5.02,12.85-7.53,22.48-7.53h66.42v23.1h-66.42c-1.93,0-3.47.56-4.65,1.7-1.17,1.13-1.76,2.74-1.76,4.83s.58,3.7,1.76,4.83c1.17,1.13,2.72,1.7,4.65,1.7h40.43c20.42,0,30.64,9,30.64,27,0,8.37-2.62,15.15-7.85,20.34-5.23,5.19-12.83,7.79-22.79,7.79Z"></path><path class="cls-2" d="M1002.67,179.57h-23.23v-68.18h-32.52v-23.1h88.15v23.1h-32.4v68.18Z"></path><path class="cls-2" d="M1154.23,179.57h-32.9l-21.35-24.36h-22.6v-19.46h32.77c3.77,0,6.76-1.11,8.98-3.33,2.22-2.22,3.33-5.17,3.33-8.85s-1.09-6.74-3.26-8.92c-2.18-2.18-5.19-3.26-9.04-3.26h-43.95v68.18h-23.1v-91.29h67.05c10.88,0,19.44,3.1,25.68,9.29,6.24,6.2,9.35,14.57,9.35,25.11,0,7.28-1.61,13.44-4.83,18.46-3.22,5.02-7.68,8.71-13.37,11.05l27.25,27.37ZM1096.6,82.63h-16.07l-9.67-16.83h12.18l5.02,10.67h1.13l5.02-10.67h12.18l-9.79,16.83Z"></path><path class="cls-2" d="M1244.51,179.57h-84.51v-91.29h84.25v23.1h-61.15v44.95h61.4v23.23ZM1240.75,141.9h-46.46v-17.45h46.46v17.45Z"></path><path class="cls-2" d="M1325.25,179.57h-69.44v-23.23h69.44c2.76,0,4.9-.61,6.4-1.82,1.51-1.21,2.26-2.95,2.26-5.21s-.78-4.06-2.32-5.4c-1.55-1.34-3.66-2.01-6.34-2.01h-40.68c-9.29,0-16.66-2.45-22.1-7.35-5.44-4.9-8.16-11.32-8.16-19.27s2.68-14.44,8.04-19.46c5.36-5.02,12.85-7.53,22.48-7.53h66.42v23.1h-66.42c-1.93,0-3.47.56-4.65,1.7-1.17,1.13-1.76,2.74-1.76,4.83s.58,3.7,1.76,4.83c1.17,1.13,2.72,1.7,4.65,1.7h40.43c20.42,0,30.64,9,30.64,27,0,8.37-2.62,15.15-7.85,20.34-5.23,5.19-12.83,7.79-22.79,7.79ZM1315.21,82.63h-16.07l-9.67-16.83h12.18l5.02,10.67h1.13l5.02-10.67h12.18l-9.79,16.83Z"></path><path class="cls-2" d="M1451.57,179.57h-84.5v-91.29h84.25v23.1h-61.15v44.95h61.4v23.23ZM1447.8,141.9h-46.46v-17.45h46.46v17.45Z"></path></g><path class="cls-1" d="M713.35,165.77h56.25l15.62,13.26,27.51,23.35c10.49-19.39,16.44-41.59,16.44-65.18C829.17,61.43,767.74,0,691.97,0c-46.66,0-87.87,23.3-112.66,58.89l26.88,22.81c18.23-28.09,49.87-46.7,85.78-46.7,56.36,0,102.21,45.85,102.21,102.21,0,5.65-.47,11.19-1.35,16.59l-100.13-82.68c-5.02-4.15-12.6-.57-12.6,5.94v95.77l-84.08-70.8-15.04-12.67-12.96-11s-.02.04-.03.06c-.49,1.03-.96,2.06-1.43,3.1-7.57,17.02-11.78,35.87-11.78,55.7,0,75.78,61.43,137.21,137.21,137.21,44.18,0,83.48-20.89,108.58-53.32l-26.75-22.71c-18.66,24.89-48.39,41.03-81.83,41.03-54.76,0-99.6-43.3-102.09-97.46l65.56,55.51h47.93v-87.46l38.15,32.28h-28.17v23.48Z"></path></g></g></svg>